<?xml version="1.0" standalone="no"?>
<!DOCTYPE svg PUBLIC "-//W3C//DTD SVG 20010904//EN"
 "http://www.w3.org/TR/2001/REC-SVG-20010904/DTD/svg10.dtd">
<svg version="1.0" xmlns="http://www.w3.org/2000/svg"
 width="1461.000000pt" height="1344.000000pt" viewBox="0 0 1461.000000 1344.000000"
 preserveAspectRatio="xMidYMid meet">

<g transform="translate(0.000000,1344.000000) scale(0.100000,-0.100000)"
fill="#000000" stroke="none">
<path d="M8487 12734 c-4 -4 -51 -9 -104 -11 -54 -2 -147 -10 -208 -19 -76
-10 -159 -13 -270 -10 -144 4 -170 2 -260 -19 -55 -13 -131 -36 -170 -51 -38
-15 -86 -30 -105 -33 -23 -4 -38 -14 -45 -29 -10 -23 -20 -28 -30 -13 -3 5
-40 -8 -82 -29 -78 -40 -114 -52 -168 -56 -16 -2 -46 -5 -65 -8 -79 -10 -208
-20 -255 -18 -27 0 -63 -4 -79 -10 -26 -10 -27 -13 -10 -19 10 -4 38 -5 62 -2
57 7 54 -11 -5 -33 -27 -10 -52 -21 -58 -24 -15 -11 -55 -19 -55 -12 0 4 -4
13 -9 21 -7 11 -17 7 -50 -20 -22 -19 -41 -42 -41 -51 0 -19 -34 -24 -58 -9
-23 14 -92 -5 -122 -34 -24 -23 -41 -29 -117 -37 -48 -5 -109 -9 -136 -8 -26
0 -68 -6 -93 -15 -24 -8 -66 -15 -92 -15 -27 0 -62 -8 -82 -19 -19 -10 -56
-21 -83 -25 -26 -4 -59 -14 -75 -22 -15 -7 -38 -14 -50 -14 -13 0 -36 -6 -50
-13 -15 -8 -43 -21 -62 -29 -19 -8 -56 -25 -83 -36 -26 -12 -54 -22 -62 -22
-8 0 -15 -6 -15 -13 0 -16 -65 -49 -141 -70 -30 -9 -64 -26 -74 -37 -10 -11
-23 -20 -30 -20 -41 0 -204 -236 -235 -340 -18 -61 -66 -163 -107 -228 -18
-29 -33 -57 -33 -62 0 -5 -8 -17 -19 -27 -10 -10 -21 -34 -25 -54 -4 -21 -13
-42 -20 -48 -22 -18 -58 -130 -51 -158 5 -21 3 -24 -14 -18 -13 4 -27 -1 -40
-14 -12 -12 -39 -24 -61 -27 -41 -7 -100 -59 -100 -88 0 -8 -7 -19 -16 -27 -9
-7 -13 -21 -10 -32 3 -11 0 -30 -6 -41 -6 -11 -13 -36 -15 -55 -2 -19 -12 -46
-22 -60 -39 -55 -58 -109 -64 -175 -5 -53 -11 -72 -27 -83 -11 -8 -20 -23 -20
-33 0 -11 -21 -41 -46 -67 -52 -55 -65 -81 -64 -132 1 -20 -2 -77 -6 -127 -7
-91 -7 -92 29 -165 43 -88 56 -147 36 -160 -11 -7 -11 -9 2 -9 9 0 20 -7 23
-16 13 -34 5 -55 -29 -75 -36 -22 -65 -59 -46 -59 6 0 13 -11 17 -24 4 -18 -4
-39 -35 -83 -36 -52 -39 -62 -32 -93 7 -32 9 -33 17 -14 12 28 94 120 94 105
0 -6 7 -11 15 -11 22 0 18 -21 -5 -27 -11 -3 -20 -14 -20 -24 0 -11 -6 -19
-12 -19 -7 0 -22 -8 -33 -16 -19 -15 -19 -16 -1 -29 14 -11 17 -20 11 -42 -5
-15 -7 -33 -6 -40 1 -6 -12 -24 -28 -40 -21 -21 -28 -36 -24 -54 3 -16 -1 -30
-11 -38 -9 -8 -16 -22 -16 -33 0 -26 20 -12 21 15 1 20 2 20 8 -3 6 -21 2 -31
-28 -58 -28 -27 -32 -35 -20 -42 12 -8 12 -14 -3 -41 -20 -34 -24 -64 -8 -54
5 3 10 -1 10 -10 0 -9 5 -13 10 -10 6 4 8 15 5 24 -3 11 2 24 11 32 16 13 17
8 11 -77 -5 -72 -3 -95 8 -110 11 -14 13 -36 9 -90 -6 -60 -4 -72 10 -77 10
-4 16 -1 16 8 0 7 3 16 8 18 4 3 7 -90 7 -206 0 -193 2 -215 20 -244 15 -26
17 -35 7 -45 -16 -16 -15 -43 3 -61 21 -22 45 -92 57 -167 10 -63 28 -105 28
-65 0 12 3 16 10 9 5 -5 11 -53 13 -105 2 -52 7 -100 10 -106 4 -6 6 -43 6
-81 -1 -49 4 -77 14 -93 15 -21 16 -20 12 25 -2 25 0 46 6 46 5 0 9 -7 9 -15
0 -8 4 -23 9 -33 6 -9 13 -34 16 -54 3 -21 10 -38 15 -38 15 0 16 43 2 72 -13
26 -10 48 7 48 9 0 32 -135 26 -152 -3 -7 5 -18 17 -23 13 -6 24 -20 26 -31 2
-12 12 -24 23 -27 12 -3 19 -14 19 -28 l0 -23 -16 22 c-21 30 -35 19 -21 -18
9 -24 15 -28 34 -24 17 5 23 2 23 -10 0 -10 -5 -13 -16 -9 -12 5 -10 -3 8 -33
13 -21 23 -49 22 -62 -1 -12 1 -20 4 -17 3 3 14 -2 23 -11 17 -16 19 -16 25 0
6 16 50 22 70 8 20 -13 34 -49 40 -104 3 -29 10 -69 15 -88 5 -19 9 -50 9 -69
0 -18 4 -50 9 -70 5 -20 15 -63 21 -96 7 -33 17 -66 22 -73 6 -7 8 -30 4 -51
-6 -39 -6 -39 19 -28 30 14 31 24 5 57 -20 26 -27 70 -11 70 14 0 41 -59 34
-76 -4 -10 2 -14 20 -14 36 0 49 -23 51 -91 1 -80 -14 -86 -55 -20 -27 43 -34
49 -50 40 -11 -5 -19 -12 -19 -14 0 -11 24 -55 30 -55 3 0 16 -17 27 -38 12
-20 33 -48 47 -61 14 -14 26 -29 26 -35 0 -16 56 -77 64 -69 3 3 6 -1 6 -11 0
-9 9 -30 21 -45 24 -33 19 -82 -7 -60 -8 6 -14 18 -14 26 0 7 -9 23 -20 35
-10 12 -17 25 -14 29 7 12 -17 22 -27 12 -7 -7 -2 -20 14 -39 32 -38 49 -72
43 -83 -8 -13 28 -20 47 -10 11 7 17 4 22 -11 3 -11 4 -24 0 -30 -3 -5 -1 -17
6 -28 9 -15 5 -27 -23 -72 -26 -41 -35 -67 -37 -102 -1 -37 2 -48 14 -48 18 0
19 -12 4 -27 -9 -9 -7 -16 7 -30 17 -17 18 -17 11 0 -11 28 21 34 40 7 9 -13
24 -30 35 -39 39 -33 7 -44 -35 -11 -37 29 -55 25 -26 -6 24 -26 83 -56 130
-68 33 -7 65 -70 75 -145 5 -37 12 -52 25 -56 11 -4 19 -15 19 -25 0 -11 6
-34 14 -52 68 -158 95 -227 101 -251 4 -15 11 -30 16 -33 5 -3 9 -13 9 -23 0
-9 8 -35 19 -57 10 -21 31 -74 46 -117 24 -69 27 -89 23 -168 -4 -80 -2 -89
15 -95 14 -4 17 -12 13 -30 -5 -19 -2 -26 16 -34 13 -5 17 -9 9 -9 -10 -1 -12
-9 -6 -33 4 -18 8 -45 9 -60 2 -14 10 -34 20 -43 11 -12 14 -21 7 -28 -11 -11
-3 -39 10 -31 19 11 30 -8 12 -21 -15 -11 -16 -16 -5 -27 11 -11 14 -10 22 2
14 22 23 5 10 -19 -8 -16 -8 -21 1 -19 16 4 40 -42 35 -65 -2 -9 1 -17 7 -17
8 0 7 -4 -1 -12 -16 -16 -15 -29 1 -22 8 3 20 -2 27 -11 11 -13 8 -14 -21 -9
l-34 5 28 -23 c15 -13 27 -29 27 -36 0 -7 9 -12 20 -12 12 0 25 -10 32 -25 8
-18 17 -24 29 -20 9 3 20 2 23 -3 10 -17 -32 -20 -60 -6 -15 8 -32 13 -38 10
-6 -2 -3 -5 6 -5 9 -1 23 -10 31 -22 13 -18 18 -19 37 -9 20 11 21 10 16 -8
-5 -14 0 -25 16 -36 12 -9 17 -16 10 -16 -8 0 -10 -5 -5 -12 4 -7 8 -17 8 -23
0 -5 4 -11 9 -13 5 -1 10 13 10 30 1 32 11 48 31 48 6 0 4 -4 -4 -9 -8 -5 -11
-16 -8 -26 4 -9 12 -13 18 -9 7 4 9 0 5 -13 -4 -13 0 -25 11 -34 11 -9 14 -10
9 -1 -4 7 -2 12 7 12 9 0 14 -11 15 -31 0 -23 -3 -29 -14 -25 -8 3 -14 1 -14
-4 0 -5 16 -12 35 -16 31 -6 50 -24 25 -24 -20 0 -9 -19 12 -22 15 -2 25 -13
32 -36 7 -27 13 -31 30 -26 12 4 18 3 13 -2 -8 -9 45 -34 73 -34 17 0 50 -29
50 -44 0 -5 -11 -1 -25 8 -32 21 -38 20 -26 -3 6 -10 24 -24 41 -31 16 -7 30
-17 30 -22 0 -6 7 -7 16 -4 8 3 12 2 9 -4 -3 -6 0 -19 8 -31 10 -13 16 -16 19
-8 3 9 10 9 28 -2 14 -7 30 -12 36 -11 7 1 14 -5 18 -13 4 -13 1 -15 -13 -10
-11 3 -22 1 -26 -5 -3 -5 2 -10 12 -10 10 0 27 -7 37 -15 11 -8 31 -15 44 -15
19 0 22 -4 17 -21 -6 -17 -3 -20 17 -18 42 6 70 -34 31 -44 -16 -3 -16 -5 2
-11 38 -15 70 -31 83 -44 7 -6 20 -12 28 -12 8 0 24 -9 36 -20 12 -10 25 -17
30 -14 4 3 8 -2 8 -10 0 -10 6 -13 15 -10 10 4 15 0 15 -15 0 -14 6 -21 20
-21 11 0 20 -4 20 -10 0 -5 -5 -10 -12 -10 -9 0 -9 -3 0 -12 9 -9 16 -8 29 5
13 11 23 13 33 7 13 -8 12 -10 -2 -10 -11 0 -18 -8 -18 -19 0 -23 16 -36 25
-21 10 17 25 11 25 -9 0 -20 18 -31 51 -31 10 0 19 -5 19 -11 0 -5 5 -7 10 -4
6 3 10 2 10 -3 0 -14 -29 -24 -43 -15 -7 4 -6 -1 2 -11 10 -12 24 -16 40 -13
14 3 35 2 45 -2 17 -7 18 -8 3 -14 -9 -3 -17 -15 -17 -25 0 -15 7 -18 38 -18
32 1 38 -2 38 -19 -1 -14 5 -20 20 -20 17 0 49 -13 114 -46 8 -4 13 -13 11
-21 -2 -7 -5 -22 -8 -33 -4 -20 -4 -20 11 -1 19 23 30 16 21 -14 -4 -13 -12
-19 -21 -16 -8 3 -14 -1 -14 -8 0 -8 6 -16 14 -19 15 -6 19 -57 5 -57 -5 0 -9
-4 -9 -9 0 -5 9 -7 21 -4 14 4 22 0 25 -13 4 -16 13 -18 51 -15 35 2 44 0 41
-10 -3 -8 -15 -13 -28 -11 -15 3 -21 -1 -18 -10 3 -7 15 -12 27 -11 24 3 29
-12 6 -21 -27 -10 -15 -26 20 -26 24 0 35 -5 35 -14 0 -18 -33 -29 -61 -21
-16 5 -20 3 -17 -6 3 -10 29 -14 100 -15 52 -1 100 -4 105 -7 12 -8 5 -57 -8
-57 -5 0 -9 -8 -9 -19 0 -12 9 -20 25 -23 19 -4 25 -1 25 13 0 13 7 19 23 18
16 -1 18 -2 5 -6 -10 -2 -18 -9 -18 -15 0 -6 9 -8 19 -5 15 4 24 -4 36 -29 13
-28 19 -33 34 -24 10 5 21 16 25 25 9 25 27 17 24 -12 -3 -26 -1 -28 30 -25
19 2 38 -3 48 -12 8 -9 22 -16 29 -16 9 0 12 -6 8 -16 -3 -9 -6 -25 -7 -37 -2
-43 -45 -52 -236 -51 -173 1 -362 20 -485 49 -366 87 -386 94 -770 280 -177
86 -285 152 -455 279 -269 201 -493 453 -606 681 -39 82 -44 98 -44 162 0 83
13 108 119 218 59 62 131 154 131 169 0 3 -24 2 -52 -1 -56 -7 -76 -16 -148
-73 -25 -19 -67 -47 -94 -60 -29 -15 -73 -53 -110 -94 -124 -142 -198 -202
-277 -225 -24 -7 -71 -25 -104 -41 -132 -62 -195 -88 -310 -124 -66 -21 -129
-42 -140 -46 -12 -4 -63 -22 -115 -40 -261 -89 -384 -142 -755 -325 -150 -74
-275 -135 -279 -135 -4 0 -49 -20 -99 -44 -51 -24 -189 -83 -307 -131 -118
-48 -296 -129 -395 -181 -186 -97 -242 -124 -335 -165 -30 -13 -57 -27 -60
-30 -3 -4 -36 -21 -75 -39 -163 -74 -200 -96 -250 -144 -29 -28 -62 -70 -74
-92 -11 -23 -42 -66 -68 -95 -27 -30 -76 -88 -108 -129 -33 -42 -73 -93 -90
-113 -16 -21 -37 -50 -45 -65 -9 -15 -33 -54 -54 -87 -22 -33 -50 -80 -63
-105 -13 -24 -29 -51 -36 -60 -15 -17 -155 -237 -177 -278 -8 -15 -24 -40 -36
-57 -31 -44 -137 -230 -176 -311 -19 -38 -65 -125 -101 -194 -76 -141 -197
-389 -197 -402 0 -4 3202 -8 7115 -8 l7115 0 -13 28 c-7 15 -23 50 -35 77 -13
28 -29 64 -37 80 -8 17 -26 59 -41 95 -14 36 -30 70 -34 75 -5 6 -32 57 -61
115 -28 58 -74 140 -100 183 -27 43 -49 83 -49 89 0 6 -13 32 -29 57 -17 25
-40 68 -52 96 -25 57 -91 162 -140 222 -19 23 -50 64 -69 90 -19 26 -71 92
-115 146 -44 54 -93 119 -108 145 -16 26 -43 62 -60 81 -51 53 -175 142 -226
160 -50 18 -178 84 -308 159 -45 26 -124 70 -175 99 -51 28 -133 77 -183 107
-123 76 -232 132 -340 173 -49 19 -97 40 -105 47 -32 26 -153 87 -253 126 -57
22 -168 78 -246 125 -78 47 -144 85 -147 85 -3 0 -33 18 -66 40 -34 22 -66 40
-70 40 -5 0 -37 18 -71 40 -35 21 -90 51 -123 66 -32 14 -102 46 -154 71 -52
25 -113 52 -135 60 -175 61 -432 174 -520 228 -22 13 -49 28 -60 31 -39 14
-242 121 -297 157 -64 43 -122 105 -193 206 -84 120 -172 173 -333 203 -58 11
-66 15 -77 42 -23 56 -50 270 -61 476 -3 63 -7 133 -9 155 -2 22 0 83 6 134
10 104 9 102 174 456 43 93 175 415 189 460 5 17 21 23 78 34 65 12 77 18 112
55 21 22 45 55 52 73 22 51 18 123 -11 177 -14 26 -25 53 -25 60 0 15 36 69
115 172 77 101 109 151 155 244 86 171 220 535 245 665 l18 90 -26 95 c-38
139 -38 220 -2 190 11 -9 19 -1 38 42 14 29 27 70 30 91 3 21 13 52 21 69 9
17 16 44 16 59 0 37 9 59 25 59 8 0 13 20 14 63 1 34 6 89 12 122 18 100 12
249 -11 311 -15 39 -13 87 4 81 15 -6 14 90 -2 266 -4 48 -5 90 -3 93 11 11
11 218 0 364 -6 85 -11 169 -10 186 1 17 -6 48 -14 68 -13 30 -13 41 -4 52 10
12 8 18 -9 30 -31 21 -29 48 2 42 23 -5 24 -3 25 59 0 35 5 72 10 81 17 33 22
106 8 132 -7 14 -12 50 -12 80 1 33 -3 59 -11 65 -7 6 -13 30 -15 55 -3 71 -1
80 21 80 15 0 20 7 20 29 0 23 -4 28 -19 24 -25 -6 -34 31 -19 77 6 19 12 41
14 48 2 7 8 11 13 8 6 -4 6 5 2 21 -6 22 -13 28 -37 28 -21 0 -30 5 -32 20 -6
34 -20 40 -43 19 -12 -10 -29 -18 -39 -16 -12 2 -21 -7 -29 -28 -12 -36 -34
-31 -25 6 4 15 2 24 -6 24 -6 0 -14 -9 -17 -20 -3 -11 -9 -17 -15 -14 -9 6 -4
30 18 79 18 42 21 88 6 100 -10 8 -9 21 3 65 27 96 27 98 0 65 -18 -22 -25
-42 -25 -75 0 -65 -14 -80 -28 -32 -17 55 -15 75 8 102 11 13 20 32 20 44 -1
21 -1 21 -19 -1 -27 -32 -31 -29 -31 21 0 25 -6 48 -14 55 -19 16 -27 -6 -13
-37 13 -28 5 -37 -22 -22 -12 6 -25 8 -30 5 -13 -7 -19 19 -20 84 -1 33 -7 62
-16 71 -9 10 -15 36 -15 61 0 26 -9 62 -21 84 -15 30 -19 51 -15 82 4 34 3 41
-9 37 -18 -7 -37 11 -54 54 -21 49 -31 48 -25 -2 5 -33 3 -46 -5 -46 -17 0
-41 26 -41 44 0 9 -9 25 -20 36 -11 11 -20 27 -20 36 0 10 -6 13 -18 10 -22
-7 -62 42 -67 81 -1 13 -7 29 -14 36 -16 16 -14 30 5 23 12 -5 14 -1 8 17 -9
29 -9 29 9 122 18 91 28 215 17 215 -4 0 -10 -33 -13 -73 -8 -86 -27 -177 -38
-177 -5 0 -8 15 -7 33 2 53 -24 181 -41 200 -10 12 -18 51 -23 115 -8 111 -16
158 -28 187 -11 24 -30 96 -30 110 0 6 9 -8 20 -30 11 -22 24 -47 29 -55 20
-33 46 -130 57 -210 l11 -85 2 70 c1 64 3 68 16 51 8 -11 15 -30 15 -43 0 -13
5 -23 10 -23 22 0 2 71 -30 105 -11 12 -18 34 -17 55 1 33 -4 47 -50 130 -63
115 -168 232 -264 295 -38 25 -73 54 -79 65 -6 11 -21 20 -35 20 -13 0 -37 11
-53 25 -17 14 -37 25 -45 25 -8 0 -48 34 -88 76 -77 79 -146 130 -214 159 -22
10 -48 21 -57 26 -10 5 -24 9 -33 9 -8 0 -29 6 -47 14 -18 8 -49 21 -70 30
-20 9 -46 16 -58 16 -11 0 -38 11 -58 25 -27 19 -50 25 -88 25 -28 0 -54 -3
-57 -6z m-127 -134 c12 -22 36 -27 42 -8 3 8 22 4 61 -15 32 -15 61 -27 65
-27 16 0 62 -56 62 -76 0 -14 2 -16 9 -5 6 9 14 10 27 3 30 -16 57 -50 49 -61
-9 -15 -35 -14 -35 2 0 9 -3 8 -9 -2 -7 -11 -13 -10 -35 4 -15 10 -25 24 -22
31 6 14 -3 17 -41 14 -22 -1 -82 33 -120 69 -12 12 -27 21 -33 21 -12 0 -57
28 -77 47 -10 9 -9 12 5 16 33 9 41 7 52 -13z m361 -51 c11 -11 19 -23 16 -25
-6 -7 -77 28 -77 38 0 16 40 8 61 -13z m297 -29 c27 -17 43 -40 27 -40 -4 0
-75 47 -84 56 -13 13 29 1 57 -16z m-1398 -20 c0 -4 -6 -13 -14 -19 -11 -9
-19 -9 -35 1 l-21 13 22 11 c22 12 48 9 48 -6z m1205 -60 c3 -5 1 -10 -4 -10
-6 0 -11 5 -11 10 0 6 2 10 4 10 3 0 8 -4 11 -10z m225 -73 c0 -5 -7 -6 -16
-3 -9 3 -20 6 -25 6 -5 0 -9 7 -9 15 0 12 4 13 25 3 14 -6 25 -15 25 -21z
m-345 3 c3 -5 1 -10 -4 -10 -6 0 -11 5 -11 10 0 6 2 10 4 10 3 0 8 -4 11 -10z
m-2155 -85 c0 -9 -9 -15 -21 -15 -18 0 -19 2 -9 15 7 8 16 15 21 15 5 0 9 -7
9 -15z m-150 -25 c0 -5 -4 -10 -9 -10 -5 0 -18 -3 -28 -7 -16 -6 -16 -5 -4 10
15 19 41 23 41 7z m3030 -90 c17 -16 36 -30 43 -30 7 0 23 -9 36 -19 28 -21
55 -109 40 -127 -6 -8 -5 -22 3 -39 9 -21 9 -28 -1 -35 -11 -6 -11 -9 1 -16
23 -14 38 -49 38 -88 0 -43 -13 -46 -37 -9 -10 15 -30 39 -45 54 -17 16 -28
37 -28 53 0 29 -26 86 -39 86 -7 0 -31 43 -31 55 0 3 7 5 15 5 20 0 19 34 0
50 -9 7 -13 20 -10 28 3 8 -4 26 -16 39 -33 34 -5 28 31 -7z m180 -227 c0 -15
-3 -23 -7 -19 -11 10 -11 56 -1 50 4 -3 8 -17 8 -31z m-70 -239 c0 -14 -4 -22
-10 -19 -5 3 -10 17 -10 31 0 14 4 22 10 19 6 -3 10 -17 10 -31z m67 -171 c-4
-17 -4 -17 -12 0 -4 9 -4 25 0 35 8 16 8 16 12 0 3 -10 3 -26 0 -35z m-5117
-723 c0 -5 -7 -10 -15 -10 -8 0 -15 5 -15 10 0 6 7 10 15 10 8 0 15 -4 15 -10z
m2310 -229 c28 -11 58 -17 65 -15 8 3 35 -4 60 -15 31 -14 53 -18 63 -12 10 5
40 5 69 2 29 -4 60 -3 69 2 9 5 33 6 53 2 20 -3 81 -8 136 -10 55 -2 138 -7
185 -11 161 -13 247 -6 236 21 -4 11 3 15 29 15 18 0 36 -4 39 -9 3 -5 28 -14
56 -21 28 -7 53 -16 56 -21 3 -5 21 -7 40 -3 36 7 46 -3 48 -49 1 -16 8 -23
29 -25 15 -2 27 -8 27 -13 0 -6 -4 -8 -9 -5 -4 3 -18 -5 -30 -18 l-22 -24 34
-27 c31 -22 35 -31 30 -58 -7 -46 -4 -90 7 -101 17 -17 11 -26 -17 -26 -38 0
-56 -14 -49 -36 8 -27 -4 -42 -38 -46 l-28 -3 20 -25 c11 -14 23 -40 27 -58 6
-29 4 -34 -14 -39 -12 -3 -21 -12 -21 -20 0 -10 4 -11 19 -3 25 13 31 13 31 0
0 -5 -7 -10 -15 -10 -19 0 -19 -14 1 -30 13 -12 11 -15 -15 -26 -18 -8 -31
-20 -31 -31 0 -13 3 -14 12 -5 24 24 38 13 38 -28 0 -22 4 -40 9 -40 6 0 11
-17 13 -37 3 -36 5 -38 38 -39 61 -3 60 -2 50 -28 -6 -18 -5 -28 6 -36 7 -7
14 -21 14 -32 0 -23 29 -36 41 -17 6 10 9 8 9 -10 0 -13 6 -29 14 -35 16 -13
38 -96 25 -96 -5 0 -9 -16 -9 -35 0 -39 -25 -85 -46 -85 -22 0 -42 -51 -34
-87 4 -18 4 -33 -1 -33 -4 0 -9 10 -11 23 -4 27 -24 24 -21 -4 2 -10 -2 -19
-8 -19 -5 0 -7 5 -4 10 3 6 1 10 -4 10 -6 0 -11 -7 -11 -15 0 -9 -7 -18 -15
-21 -8 -4 -15 -17 -15 -30 0 -24 -20 -35 -20 -11 -1 7 -6 5 -14 -6 -8 -10 -28
-19 -45 -20 -22 -1 -31 -7 -31 -19 0 -10 -11 -37 -24 -60 -24 -42 -25 -43 -72
-39 l-47 3 7 -41 6 -41 -34 0 c-19 0 -38 5 -42 12 -5 8 0 9 15 5 15 -4 24 1
32 15 10 19 9 20 -16 14 -16 -4 -24 -3 -21 3 7 10 -19 23 -28 14 -3 -4 -6 -14
-6 -24 0 -25 -47 -70 -65 -63 -8 4 -17 -1 -21 -10 -3 -9 -16 -16 -28 -15 -20
0 -20 1 -1 9 16 7 17 9 3 9 -9 1 -23 4 -31 7 -21 8 -57 -31 -57 -61 0 -16 -6
-25 -15 -25 -18 0 -19 -11 -2 -29 10 -11 9 -13 -5 -8 -15 5 -18 1 -18 -23 0
-28 -2 -29 -20 -18 -18 11 -18 14 -5 24 17 13 9 25 -11 17 -26 -10 -36 -40
-18 -57 14 -15 14 -16 -1 -16 -8 0 -20 -11 -25 -25 -11 -28 -20 -31 -38 -13
-9 9 -15 9 -24 0 -9 -9 -8 -12 5 -12 25 0 21 -13 -18 -62 -66 -83 -80 -98 -92
-94 -14 6 -24 -4 -17 -15 3 -5 14 -4 25 2 24 12 106 22 95 11 -4 -4 -13 -7
-19 -7 -5 0 -12 -6 -15 -13 -2 -8 2 -10 15 -6 14 5 15 4 7 -5 -16 -17 5 -61
29 -61 20 0 23 -16 5 -23 -9 -3 -5 -10 10 -22 12 -9 20 -21 17 -26 -4 -5 -1
-9 4 -9 6 0 11 -13 11 -30 0 -16 3 -30 8 -30 12 0 42 -60 42 -86 0 -14 5 -35
11 -46 8 -15 8 -22 -1 -28 -7 -4 -10 -20 -7 -39 4 -20 0 -34 -9 -39 -11 -6
-12 -15 -4 -42 6 -22 6 -38 -1 -46 -7 -8 -7 -14 1 -19 5 -3 10 -19 10 -34 0
-15 6 -33 12 -39 10 -10 10 -17 1 -31 -9 -14 -9 -21 0 -30 7 -7 11 -42 10 -87
-1 -63 2 -77 16 -81 12 -3 16 -17 18 -64 0 -33 5 -65 11 -72 16 -20 18 -61 3
-73 -11 -8 -11 -15 -2 -32 6 -12 16 -22 21 -22 6 0 5 -9 -2 -20 -10 -15 -10
-24 -1 -39 9 -14 9 -21 0 -30 -9 -9 -9 -16 1 -31 16 -26 15 -31 -2 -24 -11 4
-13 0 -9 -15 4 -14 -1 -23 -13 -28 -25 -9 -34 -23 -34 -51 0 -14 -4 -20 -10
-17 -13 8 -42 -14 -34 -26 3 -5 -2 -9 -11 -9 -8 0 -33 -12 -55 -26 -22 -15
-46 -24 -55 -20 -9 3 -13 2 -10 -4 4 -6 -7 -10 -24 -10 -18 0 -31 5 -31 13 0
6 -5 4 -11 -5 -5 -10 -20 -18 -32 -18 -18 0 -19 2 -7 10 12 8 11 10 -6 10 -12
0 -24 -7 -28 -15 -3 -8 -12 -12 -21 -9 -8 3 -15 1 -15 -6 0 -6 -4 -8 -10 -5
-5 3 -10 0 -10 -8 0 -10 -8 -13 -26 -9 -16 3 -25 1 -21 -5 4 -6 -10 -7 -39 -3
-35 5 -47 4 -51 -7 -3 -7 -18 -20 -34 -28 -15 -8 -30 -24 -34 -35 -3 -11 -12
-20 -18 -20 -6 0 -21 -11 -32 -23 -11 -13 -30 -29 -42 -36 -13 -6 -23 -16 -23
-21 0 -4 -18 -26 -39 -48 -22 -22 -37 -42 -35 -45 3 -3 -8 -13 -25 -23 -17
-10 -31 -21 -31 -24 0 -18 46 -74 74 -91 22 -13 41 -37 55 -67 25 -56 36 -70
78 -99 34 -24 82 -30 99 -13 6 6 31 12 56 13 32 2 53 10 74 30 16 15 34 27 40
27 6 0 17 7 24 15 16 20 54 19 71 -1 21 -26 65 -44 77 -32 18 18 52 -1 59 -34
5 -27 9 -29 37 -24 27 5 38 -1 81 -41 28 -26 55 -47 60 -48 26 -2 55 -18 55
-31 0 -8 4 -14 10 -14 5 0 14 -10 21 -21 8 -15 8 -19 0 -15 -6 4 -11 0 -11 -8
0 -10 9 -16 24 -16 14 0 28 -5 31 -11 4 -6 13 -8 21 -5 9 3 14 -1 15 -12 0
-10 3 -12 6 -4 7 17 38 15 54 -4 11 -14 11 -18 -3 -28 -23 -17 -66 -12 -82 9
-7 10 -18 15 -24 11 -16 -10 -15 -26 1 -26 22 0 60 -38 52 -51 -5 -8 -26 -9
-67 -5 -42 5 -64 3 -75 -5 -8 -7 -24 -15 -36 -16 -12 -2 -28 -10 -37 -18 -9
-8 -28 -15 -43 -15 -17 0 -32 -9 -43 -25 -13 -20 -24 -24 -57 -23 -23 1 -53 7
-66 14 -16 8 -40 11 -63 7 -25 -3 -43 -1 -54 8 -13 10 -17 10 -24 -1 -5 -8
-12 -11 -16 -7 -4 4 -12 3 -19 -3 -6 -5 -28 -11 -48 -14 -20 -2 -48 -16 -64
-30 -15 -14 -36 -26 -45 -26 -10 0 -18 -4 -18 -10 0 -5 -9 -10 -21 -10 -12 0
-38 -13 -58 -29 -20 -16 -56 -39 -81 -52 -25 -12 -61 -35 -81 -50 -25 -20 -42
-26 -59 -22 -17 5 -21 3 -15 -6 5 -10 2 -11 -14 -6 -13 4 -28 1 -37 -6 -21
-17 -26 -8 -27 50 -2 43 -5 50 -22 48 -13 -1 -19 3 -16 13 2 8 6 30 9 48 4 27
8 32 32 32 16 0 30 7 34 15 4 12 0 14 -19 9 -24 -6 -25 -4 -18 27 l6 34 -22
-20 c-13 -11 -18 -21 -12 -23 6 -2 11 -8 11 -13 0 -6 -4 -7 -10 -4 -5 3 -10 0
-10 -7 -1 -23 -25 -47 -39 -39 -18 12 -21 91 -4 124 7 15 10 27 6 27 -11 0
-58 -52 -66 -72 -3 -10 -12 -18 -18 -18 -13 0 -3 69 12 85 12 12 12 45 0 45
-5 0 -14 -7 -21 -15 -7 -8 -18 -15 -26 -15 -23 0 -45 -32 -43 -64 3 -48 0 -66
-11 -66 -7 0 -7 7 0 21 14 26 5 37 -19 22 -12 -8 -22 -8 -28 -2 -14 14 -35
-15 -37 -52 -1 -17 -9 -35 -18 -40 -13 -7 -35 -88 -30 -111 1 -5 -4 -8 -11 -8
-18 -1 -50 -49 -43 -65 3 -9 12 -12 21 -8 14 5 16 -2 12 -58 -3 -35 -8 -76
-12 -91 -8 -31 10 -40 19 -10 3 9 4 0 1 -20 -2 -21 0 -40 5 -43 11 -7 32 20
22 30 -4 5 -2 5 5 1 7 -4 12 -22 11 -41 -1 -19 -5 -32 -10 -29 -4 3 -8 -2 -8
-10 0 -9 4 -16 10 -16 5 0 13 -18 16 -40 7 -40 50 -83 63 -62 3 5 15 12 26 14
11 2 19 11 19 20 -1 10 4 14 12 11 8 -3 14 1 14 11 0 9 7 16 15 16 8 0 15 9
15 20 0 13 9 22 26 26 14 4 30 17 34 30 7 17 17 24 35 24 20 0 29 7 36 30 18
50 63 70 155 68 66 -2 86 2 123 21 24 13 69 27 100 31 31 5 66 11 78 14 12 2
53 6 90 8 37 2 70 6 73 10 9 11 237 24 263 15 12 -5 51 -10 87 -12 70 -4 81
-4 150 -2 42 2 45 0 43 -23 l-2 -25 11 23 c9 17 18 22 35 19 13 -2 23 -1 23 2
0 8 126 4 148 -4 19 -7 14 -25 -7 -25 -11 0 -23 -9 -26 -20 -8 -25 -25 -26
-25 -2 0 9 -9 23 -20 30 -20 12 -27 4 -11 -13 9 -10 14 -38 12 -62 0 -7 -7
-13 -14 -13 -26 0 -67 -25 -67 -42 0 -9 -4 -20 -10 -23 -5 -3 -10 3 -10 14 0
12 -7 21 -15 21 -17 0 -19 -11 -7 -25 5 -6 6 -21 1 -35 -4 -16 -7 -19 -8 -7
-1 20 -12 22 -30 5 -11 -11 -12 -9 -7 9 4 12 3 24 -2 27 -5 3 -12 -13 -16 -35
l-7 -41 -19 22 c-20 23 -22 22 -24 -12 -1 -19 -21 -25 -21 -6 0 6 -6 13 -12
16 -7 2 -13 -2 -13 -9 0 -6 -11 -22 -25 -35 -14 -13 -25 -33 -26 -46 l0 -23
-9 23 c-5 12 -7 28 -4 36 3 9 -3 17 -16 21 -16 5 -19 10 -11 18 13 13 15 27 4
27 -15 0 -31 -51 -28 -85 2 -19 -1 -38 -6 -41 -5 -3 -9 4 -9 15 0 27 -3 27
-38 -9 -23 -22 -40 -30 -66 -30 -41 0 -52 2 -49 11 1 3 -3 6 -10 6 -7 0 -20 4
-29 8 -21 8 -26 -20 -5 -29 6 -3 -5 -4 -25 -2 -21 2 -36 1 -35 -3 6 -17 -19
-11 -28 8 -5 11 -13 21 -17 21 -5 0 -8 9 -8 20 0 20 -19 29 -21 10 -1 -5 -2
-15 -3 -22 0 -6 -7 -13 -15 -16 -9 -3 -12 0 -9 10 4 8 2 21 -3 29 -8 12 -12
11 -23 -3 -14 -20 -28 -14 -19 8 3 8 -1 14 -11 14 -9 0 -16 5 -16 10 0 6 -9
20 -20 32 -10 12 -17 24 -15 28 3 5 -2 10 -10 14 -8 3 -15 1 -15 -4 0 -6 -7
-10 -16 -10 -13 0 -14 3 -5 13 8 10 7 19 -4 33 -13 17 -14 17 -15 2 0 -17 -9
-22 -27 -15 -5 1 -7 4 -7 7 1 3 5 15 9 28 9 30 -12 29 -37 -3 -21 -27 -44 -34
-35 -11 3 8 -1 20 -9 27 -10 8 -11 15 -4 24 8 9 6 14 -6 19 -29 11 -34 6 -32
-41 1 -48 20 -83 44 -83 8 0 18 -15 23 -32 5 -18 10 -28 10 -21 1 13 51 -6 51
-20 0 -5 14 -6 30 -2 24 5 30 3 30 -10 0 -11 5 -15 15 -11 9 3 18 -1 21 -9 3
-7 12 -11 20 -8 15 5 18 -5 8 -31 -3 -9 -14 -16 -24 -16 -20 0 -36 -16 -22
-22 12 -4 23 -78 11 -78 -5 0 -9 6 -9 13 0 20 -40 14 -56 -8 -21 -29 -17 -40
22 -58 22 -11 32 -22 28 -29 -5 -8 -1 -9 12 -4 14 5 16 4 8 -4 -6 -6 -9 -22
-6 -35 3 -20 7 -23 22 -15 26 14 30 13 30 -10 0 -11 6 -19 13 -17 7 1 11 -6 9
-17 -3 -19 18 -38 75 -67 29 -15 33 -15 47 0 15 14 16 14 16 -1 0 -22 21 -37
59 -41 18 -2 41 -11 52 -20 11 -10 25 -17 33 -17 7 0 21 -9 31 -20 12 -13 31
-20 57 -20 21 0 38 -4 38 -10 0 -5 18 -15 40 -21 22 -7 40 -16 40 -21 0 -5 4
-7 9 -3 6 3 14 -3 20 -12 6 -10 11 -12 11 -5 0 14 30 17 30 2 0 -5 6 -10 13
-10 8 0 22 -9 32 -20 12 -14 25 -18 41 -14 15 4 24 2 24 -5 0 -6 -5 -11 -12
-11 -30 0 7 -14 39 -14 31 -1 38 -5 44 -26 4 -16 7 -19 8 -7 1 9 5 17 10 17 4
0 6 -11 4 -24 -4 -18 0 -25 14 -28 16 -3 16 -5 -5 -17 -21 -11 -24 -10 -29 8
-3 12 -10 21 -15 21 -11 0 -1 -60 13 -75 13 -13 11 -27 -3 -19 -16 10 -79 11
-68 0 8 -8 3 -17 -31 -56 -12 -13 -14 -21 -6 -29 8 -8 8 -11 -1 -11 -19 0 -27
30 -13 52 7 11 10 22 7 26 -7 6 -46 -27 -46 -40 0 -20 -30 -39 -51 -33 -17 6
-20 13 -15 36 4 23 2 27 -11 22 -9 -4 -21 1 -28 11 -12 15 -13 15 -18 -3 -3
-12 1 -22 9 -25 8 -3 14 -20 14 -42 0 -35 -1 -36 -17 -22 -10 9 -29 19 -41 23
-14 4 -28 19 -34 36 -12 34 -35 39 -34 7 1 -15 -7 -27 -21 -33 -15 -6 -21 -15
-17 -27 4 -14 1 -16 -24 -8 -19 5 -34 4 -41 -3 -12 -12 -11 -14 -36 38 -13 29
-20 35 -23 22 -2 -12 -9 -16 -23 -12 -14 5 -19 2 -19 -12 0 -23 -27 -63 -43
-63 -7 0 -20 12 -29 27 -11 18 -18 22 -18 12 0 -9 -11 -29 -25 -44 -23 -28
-25 -28 -43 -12 -23 21 -29 21 -35 0 -3 -10 -5 -3 -6 15 -1 22 -6 32 -17 32
-14 0 -16 -8 -11 -48 6 -54 -6 -88 -23 -62 -5 8 -10 29 -11 45 l-1 30 -14 -30
-14 -30 6 32 c7 39 3 40 -35 12 -16 -12 -34 -18 -40 -15 -16 10 -23 68 -12 98
14 38 -4 45 -26 11 l-18 -27 -5 29 c-5 29 -6 29 -20 -15 -16 -51 -27 -62 -55
-55 -11 3 -14 2 -7 -1 21 -10 13 -22 -13 -19 -15 1 -25 -3 -25 -10 0 -7 -7
-18 -15 -25 -13 -11 -15 -8 -15 14 0 16 -5 26 -15 26 -18 0 -49 45 -41 59 4 5
2 12 -4 16 -5 3 -10 -1 -10 -11 0 -14 -3 -14 -15 -4 -9 7 -14 18 -12 23 2 6
-5 19 -16 30 -19 19 -18 19 14 46 23 20 29 30 20 35 -8 5 -20 0 -32 -13 -11
-12 -31 -21 -44 -21 -14 0 -25 -3 -25 -7 1 -16 27 -42 34 -35 4 4 6 3 5 -3 -2
-5 5 -25 15 -44 13 -24 15 -36 7 -44 -8 -8 -11 -6 -11 6 0 9 -6 16 -12 14 -7
-1 -12 4 -10 11 4 19 -50 102 -65 102 -7 0 -13 2 -13 4 0 11 42 96 50 101 14
9 12 25 -2 25 -14 0 -68 -63 -68 -79 0 -5 -5 -13 -12 -17 -8 -5 -9 0 -6 14 4
12 3 22 -2 22 -15 0 -33 -30 -36 -62 -2 -17 -9 -37 -15 -45 -10 -11 -14 -9
-25 11 -12 25 -9 61 8 83 17 22 -2 36 -23 17 -21 -19 -49 -12 -49 12 0 11 -6
15 -20 11 -14 -4 -26 3 -41 24 -11 16 -17 33 -14 39 3 5 0 10 -7 10 -9 0 -9 3
2 10 13 9 13 12 -2 24 -10 7 -18 17 -18 22 0 6 -9 10 -21 11 -17 2 -18 -1 -8
-13 15 -19 4 -31 -15 -15 -11 10 -17 8 -25 -6 -9 -15 -12 -16 -20 -3 -7 10 -5
20 5 31 20 23 17 35 -4 15 -18 -15 -20 -15 -42 14 -14 19 -32 30 -47 30 -13 0
-21 4 -18 10 3 5 1 18 -4 27 -9 15 -10 13 -11 -14 0 -17 -5 -35 -12 -39 -14
-9 -40 26 -35 47 3 10 -6 19 -24 26 -26 10 -29 9 -30 -10 -2 -19 -2 -19 -7 3
-4 23 -5 24 -13 5 -6 -17 -8 -17 -8 -2 -1 9 -6 17 -12 17 -5 0 -7 -6 -3 -12 5
-9 2 -9 -9 1 -9 7 -17 19 -17 26 0 7 -7 18 -15 25 -13 11 -14 10 -10 -2 3 -8
-1 -21 -10 -28 -13 -10 -15 -9 -15 8 0 11 -8 23 -18 27 -11 3 -24 17 -30 30
-7 14 -19 28 -27 31 -8 4 -15 15 -15 25 0 10 -4 19 -10 19 -5 0 -7 -14 -3 -32
6 -30 5 -32 -10 -19 -10 7 -23 34 -31 60 -12 39 -17 46 -37 43 -18 -1 -21 0
-9 7 8 6 11 13 7 17 -3 4 -13 2 -20 -5 -11 -9 -17 -8 -26 3 -7 8 -19 12 -27 9
-8 -3 -14 1 -14 11 0 13 5 14 26 6 33 -13 54 -13 54 0 0 6 -10 10 -22 10 -17
0 -19 3 -10 12 9 9 8 16 -5 30 -19 21 -37 24 -30 5 3 -8 1 -20 -4 -28 -6 -10
-9 -2 -9 24 0 38 -8 45 -28 25 -6 -6 -15 -8 -19 -4 -4 4 -1 11 7 17 10 6 12
11 4 17 -6 4 -16 16 -22 27 -6 11 -12 14 -12 7 0 -7 -4 -10 -10 -7 -14 9 -12
52 3 58 8 4 7 6 -3 6 -23 2 -61 90 -69 156 -4 36 -11 60 -20 63 -8 3 -11 0 -7
-7 11 -16 -5 -13 -26 6 -12 10 -18 12 -18 4 0 -7 -4 -9 -10 -6 -5 3 -10 17
-10 29 0 20 4 23 28 18 22 -4 25 -2 15 9 -7 7 -13 21 -13 31 0 10 -5 18 -11
18 -8 0 -10 12 -6 35 3 19 2 35 -4 35 -5 0 -9 6 -9 14 0 7 -7 19 -15 26 -8 7
-13 16 -10 20 3 5 1 11 -4 15 -6 3 -8 23 -5 45 3 28 1 40 -8 40 -15 0 -18 81
-3 92 5 4 2 10 -8 14 -18 7 -24 34 -7 34 6 0 10 7 10 15 0 8 -4 15 -8 15 -5 0
-9 13 -10 29 0 17 -6 39 -12 51 -6 11 -8 24 -6 29 3 5 -1 22 -9 37 -8 16 -15
49 -15 74 0 26 -5 51 -12 58 -9 9 -9 12 2 12 9 0 6 6 -7 15 -29 20 -44 76 -36
133 5 39 4 45 -10 39 -24 -9 -39 28 -38 91 1 13 -4 20 -9 17 -6 -3 -10 -2 -10
4 0 5 5 11 11 13 8 3 7 14 -5 35 -14 28 -14 32 0 35 13 2 12 7 -6 25 -15 16
-23 45 -30 100 -11 90 -16 477 -8 573 6 65 19 194 23 217 0 7 10 19 20 27 18
13 18 15 2 39 -18 28 -25 137 -8 137 4 0 6 11 4 24 -3 16 3 30 17 44 16 15 21
28 16 45 -4 17 -1 27 9 31 8 3 15 10 15 17 0 6 -7 9 -15 5 -11 -4 -15 1 -15
19 0 14 5 25 11 25 24 0 37 27 33 72 -2 31 1 50 11 58 8 6 12 24 10 41 -2 16
0 29 5 29 14 0 13 37 -1 46 -8 4 -8 9 0 17 6 6 11 19 11 28 0 9 7 30 15 45 8
16 15 38 15 49 0 25 10 40 33 48 21 8 23 27 1 27 -8 0 -12 5 -9 10 4 6 11 8
16 4 6 -3 13 3 16 14 3 11 11 23 19 26 8 3 14 16 14 30 0 41 18 76 35 70 10
-4 15 0 15 10 0 9 5 16 11 16 7 0 9 10 5 25 -5 18 -2 25 9 25 8 0 15 -6 15
-12 0 -9 3 -8 9 2 10 15 4 33 -8 25 -5 -2 -16 1 -25 8 -15 11 -16 19 -8 47 5
19 14 34 21 32 15 -3 14 7 -4 24 -16 16 -22 124 -7 138 4 4 8 40 8 79 1 40 4
86 8 102 17 84 19 137 5 146 -11 8 -9 14 13 32 38 31 62 143 26 121 -14 -9 0
106 15 124 6 7 20 41 31 75 17 49 26 63 44 65 14 2 22 10 22 22 0 26 68 140
83 140 7 0 21 14 30 30 10 17 26 30 36 30 17 0 31 18 31 41 0 5 -7 9 -16 9
-23 0 -11 24 14 28 15 2 22 -2 22 -12 0 -24 15 -19 28 9 6 14 25 33 40 43 33
19 67 59 101 115 32 52 68 89 119 122 23 15 42 32 42 37 0 5 15 15 33 23 17 7
43 22 57 32 14 10 39 25 55 33 17 8 39 22 50 33 57 52 183 116 199 100 3 -3
21 2 40 11 19 9 42 16 51 16 9 0 26 5 38 11 12 7 55 11 97 11 41 -1 81 2 88 6
27 18 169 13 222 -7z m920 -21 c0 -5 -4 -10 -9 -10 -6 0 -13 5 -16 10 -3 6 1
10 9 10 9 0 16 -4 16 -10z m2517 -242 c-3 -8 -6 -5 -6 6 -1 11 2 17 5 13 3 -3
4 -12 1 -19z m-2096 -81 c-10 -24 -13 -26 -36 -15 -14 6 -22 14 -17 17 5 3 15
17 21 30 11 20 15 21 27 9 11 -11 12 -21 5 -41z m2319 -98 c0 -5 -7 -9 -15 -9
-15 0 -20 12 -9 23 8 8 24 -1 24 -14z m-40 -16 c-1 -19 -18 -33 -33 -27 -26
10 -20 34 8 34 14 0 25 -3 25 -7z m-2344 -80 c-11 -11 -19 6 -11 24 8 17 8 17
12 0 3 -10 2 -21 -1 -24z m-3985 -34 l-10 -24 0 26 c-1 14 2 29 6 33 12 12 14
-9 4 -35z m-1 -95 c0 -8 -4 -12 -10 -9 -5 3 -10 10 -10 16 0 5 5 9 10 9 6 0
10 -7 10 -16z m57 -66 c-3 -7 -5 -2 -5 12 0 14 2 19 5 13 2 -7 2 -19 0 -25z
m-17 -41 c0 -5 -4 -5 -10 -2 -5 3 -10 14 -10 23 0 15 2 15 10 2 5 -8 10 -19
10 -23z m3883 18 c4 -8 2 -17 -3 -20 -6 -4 -10 3 -10 14 0 25 6 27 13 6z m47
-99 c-14 -14 -24 0 -16 21 6 15 8 15 16 3 6 -9 5 -19 0 -24z m2416 -103 c-10
-26 -18 -8 -9 23 5 21 8 24 11 11 2 -10 1 -25 -2 -34z m34 -17 c0 -8 -4 -18
-10 -21 -16 -10 -11 -26 8 -23 15 3 17 -4 14 -47 -2 -40 -8 -55 -30 -74 -17
-16 -23 -26 -14 -29 6 -2 12 -8 12 -14 0 -7 -5 -6 -14 1 -17 14 -15 106 2 123
15 15 16 31 1 22 -13 -8 -9 45 4 64 13 16 27 15 27 -2z m-2407 -453 c-7 -2
-19 -2 -25 0 -7 3 -2 5 12 5 14 0 19 -2 13 -5z m-173 -179 c0 -9 -7 -14 -17
-12 -25 5 -28 28 -4 28 12 0 21 -6 21 -16z m-92 -39 c-3 -3 -9 2 -12 12 -6 14
-5 15 5 6 7 -7 10 -15 7 -18z m-511 -371 c-3 -3 -12 -4 -19 -1 -8 3 -5 6 6 6
11 1 17 -2 13 -5z m1253 -76 c0 -18 -2 -20 -9 -8 -6 8 -7 18 -5 22 9 14 14 9
14 -14z m-121 -62 c10 -12 8 -17 -10 -26 -16 -9 -20 -9 -14 -1 4 7 1 18 -5 26
-10 12 -9 15 3 15 8 0 20 -6 26 -14z m-254 -305 c3 -16 17 -41 31 -56 44 -47
32 -55 -46 -29 -40 13 -49 20 -48 38 0 11 -2 28 -6 37 -5 10 1 19 16 27 36 17
46 14 53 -17z m-300 -68 c-4 -10 -12 -31 -18 -48 -5 -16 -16 -45 -23 -62 -7
-18 -11 -40 -7 -49 4 -12 3 -15 -5 -10 -15 9 -26 69 -18 98 10 39 45 88 62 88
11 0 14 -5 9 -17z m257 -87 c5 -8 13 -8 27 1 17 11 19 10 15 -1 -8 -22 -66
-40 -75 -24 -4 7 -29 13 -54 14 -41 2 -46 0 -42 -16 3 -13 0 -16 -14 -13 -10
3 -15 11 -12 19 3 8 1 14 -5 14 -5 0 -12 -7 -16 -15 -5 -15 -37 -21 -49 -9
-11 11 12 42 35 47 38 8 183 -5 190 -17z m-292 -121 c0 -8 -2 -15 -4 -15 -2 0
-6 7 -10 15 -3 8 -1 15 4 15 6 0 10 -7 10 -15z m193 -36 c7 -1 20 -1 29 0 14
2 16 -4 11 -33 -5 -31 -3 -36 14 -36 12 0 26 -7 33 -15 9 -10 16 -12 24 -6 7
6 22 8 34 4 16 -4 22 -1 22 11 0 10 5 14 10 11 6 -3 10 -14 10 -24 0 -14 8
-17 43 -16 31 1 51 -4 71 -20 26 -21 26 -22 7 -39 -18 -16 -20 -16 -39 8 -11
15 -26 26 -33 26 -12 0 -12 -2 0 -9 7 -5 11 -13 8 -17 -8 -13 14 -37 46 -52
36 -16 42 -15 27 3 -9 11 -9 15 -1 15 6 0 15 -8 18 -17 10 -28 26 -33 44 -14
25 26 89 14 89 -16 0 -13 3 -13 16 -2 12 10 20 10 34 1 13 -8 21 -8 25 -1 4 5
15 7 26 4 11 -4 19 -2 19 4 0 6 -7 11 -15 11 -8 0 -15 5 -15 11 0 6 7 9 15 5
8 -3 15 0 15 6 0 16 82 2 92 -16 5 -9 15 -16 23 -16 9 0 12 -6 8 -17 -6 -16
-3 -15 17 2 13 11 20 14 16 8 -4 -8 -1 -13 9 -13 9 0 14 4 10 9 -3 5 0 13 6
17 6 3 15 1 19 -6 4 -7 12 -10 18 -6 6 3 14 2 17 -4 4 -6 15 -8 26 -5 11 4 19
2 19 -5 0 -6 6 -10 13 -9 43 5 67 -2 67 -21 0 -11 5 -20 10 -20 6 0 10 7 10
15 0 8 5 15 10 15 6 0 10 -7 10 -15 0 -9 8 -19 18 -22 24 -10 82 -73 66 -73
-7 0 -17 7 -22 16 -5 10 -14 14 -21 9 -9 -5 -7 -13 9 -30 l22 -23 -24 -4 c-15
-2 -23 -9 -22 -21 1 -9 -2 -17 -7 -17 -6 0 -5 -9 1 -20 9 -18 8 -20 -15 -20
-23 0 -25 -2 -14 -22 l11 -21 -28 20 c-43 29 -62 34 -68 16 -8 -19 -1 -29 24
-36 11 -3 18 -1 14 4 -3 5 0 9 5 9 6 0 11 -9 11 -21 0 -11 -4 -17 -10 -14 -6
4 -10 -7 -10 -25 0 -22 4 -29 13 -24 8 5 8 3 -2 -9 -7 -9 -17 -15 -21 -12 -4
3 -11 -3 -14 -12 -6 -15 8 -32 27 -33 4 0 7 -5 7 -11 0 -6 -10 -9 -23 -7 -22
4 -24 1 -24 -39 0 -37 3 -43 19 -37 10 3 18 1 18 -5 0 -5 7 -17 17 -26 12 -12
13 -19 4 -24 -7 -4 -9 -15 -5 -25 6 -16 4 -17 -15 -6 -13 6 -26 8 -29 4 -4 -4
-1 -9 6 -11 6 -3 12 -11 12 -19 0 -8 7 -17 15 -20 23 -9 18 -34 -7 -35 l-23 0
23 -9 c12 -5 22 -14 22 -20 0 -13 -17 -13 -25 0 -13 20 -25 -1 -14 -23 17 -32
17 -32 39 -12 11 10 20 13 20 7 0 -6 -6 -15 -13 -19 -7 -4 -18 -23 -23 -42 -5
-19 -15 -36 -23 -39 -8 -3 -11 0 -7 7 5 7 -1 11 -13 11 -12 0 -21 -5 -21 -11
0 -5 6 -7 13 -3 7 4 9 3 4 -2 -5 -5 -12 -10 -15 -10 -31 -7 -52 -19 -52 -31 0
-10 5 -11 18 -4 25 13 49 -21 27 -39 -8 -6 -18 -9 -23 -6 -6 3 -16 -2 -23 -11
-12 -14 -11 -15 6 -10 14 5 24 1 33 -13 10 -17 10 -20 -2 -20 -11 0 -13 -7 -7
-28 10 -33 2 -94 -11 -86 -5 3 -7 20 -4 37 l6 32 -14 -30 c-8 -16 -20 -30 -28
-31 -7 0 -20 -4 -28 -7 -8 -4 -24 -5 -34 -4 -14 1 -27 -12 -45 -48 -14 -27
-29 -51 -33 -53 -4 -2 -1 -10 7 -18 12 -12 12 -18 2 -29 -6 -7 -13 -9 -15 -4
-6 16 -20 10 -18 -8 0 -10 -5 -17 -11 -16 -7 2 -13 -3 -13 -11 0 -8 -3 -22 -7
-31 -5 -14 -2 -16 13 -11 18 6 19 0 19 -77 0 -69 -3 -85 -20 -100 -11 -10 -27
-16 -37 -14 -10 3 -20 2 -23 -3 -6 -9 -53 -1 -61 11 -3 5 4 13 16 17 20 8 21
9 5 22 -15 12 -19 12 -30 -3 -12 -16 -13 -16 -18 3 -5 20 -37 29 -37 10 0 -5
-8 -10 -19 -10 -26 0 -54 46 -47 76 5 18 2 24 -10 24 -10 0 -14 5 -10 15 3 8
1 15 -5 15 -5 0 -9 6 -8 13 4 24 -14 72 -33 85 -10 7 -18 25 -18 39 0 15 -7
35 -16 44 -9 10 -16 30 -16 44 0 15 -8 30 -19 36 -14 7 -17 16 -12 39 3 17 1
30 -4 30 -9 0 -53 79 -53 95 0 4 -23 41 -51 82 -28 41 -55 88 -61 104 -5 16
-13 29 -17 29 -4 0 -14 17 -22 38 -8 20 -26 61 -41 89 -16 29 -28 58 -28 64 0
6 -7 17 -16 26 -8 9 -13 22 -9 31 3 8 0 21 -6 28 -8 10 -8 21 2 43 7 16 17 27
21 25 12 -8 9 21 -4 34 -8 8 -8 15 1 25 9 12 7 16 -9 20 -11 3 -20 0 -20 -6 0
-6 -7 -4 -16 5 -22 22 -10 37 26 32 25 -4 30 -2 30 16 0 17 4 20 21 15 19 -6
20 -5 9 15 -8 16 -9 25 0 35 9 10 8 19 0 36 -7 12 -9 35 -6 51 4 20 1 30 -9
34 -8 4 -15 10 -15 16 0 13 -26 38 -40 38 -8 0 -9 10 -5 30 4 20 3 30 -5 30
-8 0 -9 7 -5 18 4 9 9 23 12 30 3 6 0 12 -6 12 -6 0 -11 -6 -11 -14 0 -8 -7
-17 -16 -20 -20 -8 -33 2 -18 12 15 10 9 44 -11 58 -8 6 -18 27 -20 46 -4 34
-3 36 38 48 23 8 55 15 72 16 16 1 31 8 34 15 2 7 9 1 18 -14 7 -15 19 -28 26
-28z m93 -38 c17 14 32 3 17 -12 -14 -14 -56 -2 -46 14 5 8 8 8 11 -1 3 -10 7
-10 18 -1z m-266 -131 c0 -5 -5 -10 -11 -10 -5 0 -7 5 -4 10 3 6 8 10 11 10 2
0 4 -4 4 -10z m550 -20 c0 -11 -7 -20 -15 -20 -13 0 -14 4 -5 20 6 11 13 20
15 20 3 0 5 -9 5 -20z m-510 -23 c0 -5 -4 -5 -10 -2 -5 3 -10 14 -10 23 0 15
2 15 10 2 5 -8 10 -19 10 -23z m-30 2 c0 -5 -9 -9 -20 -9 -19 0 -26 11 -14 23
8 8 34 -3 34 -14z m0 -23 c0 -11 -19 -15 -25 -6 -3 5 1 10 9 10 9 0 16 -2 16
-4z m28 -49 c2 -8 -1 -18 -7 -21 -16 -10 -41 5 -41 25 0 24 43 20 48 -4z
m2483 -60 c-9 -9 -10 -5 -7 13 6 36 8 37 13 16 3 -10 0 -23 -6 -29z m-2894
-179 c-3 -8 -6 -5 -6 6 -1 11 2 17 5 13 3 -3 4 -12 1 -19z m1611 3 c3 -8 -1
-12 -9 -9 -7 2 -15 10 -17 17 -3 8 1 12 9 9 7 -2 15 -10 17 -17z m1232 -251
c0 -13 -7 -20 -20 -20 -23 0 -26 10 -8 28 18 18 28 15 28 -8z m-1340 -110 c0
-5 -2 -10 -4 -10 -3 0 -8 5 -11 10 -3 6 -1 10 4 10 6 0 11 -4 11 -10z m-1765
-410 c3 -5 -1 -10 -9 -10 -9 0 -16 5 -16 10 0 6 4 10 9 10 6 0 13 -4 16 -10z
m1555 -106 c0 -8 -4 -14 -9 -14 -11 0 -22 26 -14 34 9 9 23 -3 23 -20z m90 16
c0 -5 -5 -10 -11 -10 -5 0 -7 5 -4 10 3 6 8 10 11 10 2 0 4 -4 4 -10z m-115
-70 c3 -5 1 -10 -4 -10 -6 0 -11 5 -11 10 0 6 2 10 4 10 3 0 8 -4 11 -10z
m-3915 -56 c0 -9 -5 -14 -12 -12 -18 6 -21 28 -4 28 9 0 16 -7 16 -16z m3860
-44 c0 -5 -5 -10 -11 -10 -5 0 -7 5 -4 10 3 6 8 10 11 10 2 0 4 -4 4 -10z m5
-140 c3 -5 -3 -10 -15 -10 -12 0 -18 5 -15 10 3 6 10 10 15 10 5 0 12 -4 15
-10z m-985 -55 c0 -8 -4 -15 -10 -15 -5 0 -10 7 -10 15 0 8 5 15 10 15 6 0 10
-7 10 -15z m40 -19 c0 -5 -7 -3 -15 4 -8 7 -12 17 -9 22 7 10 24 -9 24 -26z
m697 18 c10 -10 12 -19 6 -25 -6 -6 -14 0 -21 16 -13 29 -8 32 15 9z m-642
-45 c10 -14 1 -21 -19 -13 -9 3 -13 10 -10 15 7 12 21 11 29 -2z m-75 -9 c0
-5 -7 -7 -15 -4 -8 4 -15 8 -15 10 0 2 7 4 15 4 8 0 15 -4 15 -10z m871 -17
c13 -16 12 -17 -3 -4 -10 7 -18 15 -18 17 0 8 8 3 21 -13z m-801 -14 c0 -5 -4
-9 -10 -9 -5 0 -10 7 -10 16 0 8 5 12 10 9 6 -3 10 -10 10 -16z m-1505 -19
c-3 -5 -14 -10 -23 -9 -14 0 -13 2 3 9 27 11 27 11 20 0z m-1323 -207 c10 -9
18 -22 18 -30 0 -13 4 -24 28 -70 18 -34 15 -43 -15 -43 -68 0 -74 7 -72 74 3
90 8 99 41 69z m-62 -74 c0 -5 -4 -9 -10 -9 -5 0 -10 7 -10 16 0 8 5 12 10 9
6 -3 10 -10 10 -16z m1770 -238 c0 -6 -4 -12 -8 -15 -5 -3 -9 1 -9 9 0 8 4 15
9 15 4 0 8 -4 8 -9z m600 -205 c0 -3 -4 -8 -10 -11 -5 -3 -10 -1 -10 4 0 6 5
11 10 11 6 0 10 -2 10 -4z m-1770 -346 c0 -5 -5 -10 -11 -10 -5 0 -7 5 -4 10
3 6 8 10 11 10 2 0 4 -4 4 -10z m360 -210 c0 -5 -2 -10 -4 -10 -3 0 -8 5 -11
10 -3 6 -1 10 4 10 6 0 11 -4 11 -10z m1885 -150 c3 -5 1 -10 -4 -10 -6 0 -11
5 -11 10 0 6 2 10 4 10 3 0 8 -4 11 -10z m-50 -20 c3 -5 -1 -10 -10 -10 -9 0
-13 5 -10 10 3 6 8 10 10 10 2 0 7 -4 10 -10z m-1415 -64 c0 -3 -4 -8 -10 -11
-5 -3 -10 -1 -10 4 0 6 5 11 10 11 6 0 10 -2 10 -4z m13 -101 c4 -8 2 -17 -3
-20 -6 -4 -10 3 -10 14 0 25 6 27 13 6z m1055 -20 c-3 -3 -9 2 -12 12 -6 14
-5 15 5 6 7 -7 10 -15 7 -18z m-748 -55 c-13 -41 -30 -45 -30 -8 0 20 30 60
39 52 2 -2 -2 -22 -9 -44z m671 7 c-8 -8 -11 -7 -11 4 0 20 13 34 18 19 3 -7
-1 -17 -7 -23z m-1116 -886 c3 -5 1 -12 -5 -16 -5 -3 -10 1 -10 9 0 18 6 21
15 7z m235 -215 c0 -11 -19 -15 -25 -6 -3 5 1 10 9 10 9 0 16 -2 16 -4z m315
-246 c3 -5 1 -10 -4 -10 -6 0 -11 5 -11 10 0 6 2 10 4 10 3 0 8 -4 11 -10z
m775 -660 c0 -5 -8 -10 -17 -10 -15 0 -16 2 -3 10 19 12 20 12 20 0z m60 -34
c0 -3 -4 -8 -10 -11 -5 -3 -10 -1 -10 4 0 6 5 11 10 11 6 0 10 -2 10 -4z"/>
<path d="M9480 12079 c1 -8 7 -25 15 -39 l14 -25 1 26 c0 15 -7 32 -15 39 -12
10 -15 10 -15 -1z"/>
<path d="M9517 11956 c-6 -15 1 -26 15 -26 4 0 8 9 8 20 0 23 -15 27 -23 6z"/>
<path d="M5320 9570 c-1 -3 -4 -15 -5 -28 -1 -15 1 -20 7 -14 6 6 8 18 5 28
-3 11 -6 17 -7 14z"/>
<path d="M5261 9324 c0 -11 3 -14 6 -6 3 7 2 16 -1 19 -3 4 -6 -2 -5 -13z"/>
<path d="M5200 9159 c0 -5 5 -7 10 -4 6 3 10 8 10 11 0 2 -4 4 -10 4 -5 0 -10
-5 -10 -11z"/>
<path d="M5623 9018 c-13 -6 -23 -14 -23 -18 0 -4 -10 -5 -23 -3 -15 3 -34 -4
-53 -19 -16 -13 -42 -32 -57 -41 -15 -10 -32 -30 -38 -44 -5 -15 -25 -44 -44
-65 -19 -21 -35 -46 -35 -56 0 -22 -40 -72 -57 -72 -6 0 -9 -8 -7 -17 3 -11
-12 -37 -39 -68 -48 -56 -107 -141 -107 -156 0 -5 -4 -9 -10 -9 -5 0 -10 -10
-10 -22 -1 -23 -21 -58 -34 -58 -3 0 -6 14 -6 30 0 17 -5 30 -11 30 -7 0 -9
-9 -6 -21 3 -12 -3 -36 -14 -55 l-19 -35 30 -6 c51 -10 30 -33 -31 -33 -25 0
-28 -3 -20 -18 10 -18 51 -28 51 -11 0 5 18 9 41 9 24 0 38 -4 34 -10 -3 -5
-13 -10 -21 -10 -9 0 -22 -7 -30 -15 -9 -8 -29 -15 -45 -15 -16 0 -29 -3 -29
-7 1 -12 30 -48 30 -38 0 5 5 4 12 -3 8 -8 8 -15 -1 -26 -13 -15 -6 -56 9 -56
4 0 12 21 17 48 9 49 8 48 70 51 12 1 29 8 37 17 9 8 21 12 28 8 7 -5 22 -8
33 -9 57 -3 61 -5 63 -30 1 -15 -4 -28 -13 -31 -21 -8 -20 -64 1 -64 14 0 14
3 4 15 -17 21 -7 29 19 16 17 -10 24 -7 43 14 14 16 28 23 39 20 10 -3 20 -1
24 5 8 13 25 13 25 0 0 -5 -6 -10 -14 -10 -8 0 -31 -16 -50 -35 -20 -19 -46
-35 -57 -35 -15 0 -19 -5 -16 -15 4 -8 2 -17 -4 -20 -5 -4 -7 -11 -3 -16 3 -6
-3 -13 -14 -16 -16 -4 -20 -12 -19 -37 2 -17 6 -37 11 -44 9 -15 9 -15 -19
-30 -11 -6 -14 -12 -7 -12 6 0 12 -7 12 -15 0 -9 7 -18 15 -21 8 -4 15 -18 15
-34 0 -27 22 -46 41 -34 5 3 12 -2 15 -10 3 -9 12 -16 20 -16 8 0 14 -4 14
-10 0 -5 17 -9 38 -8 20 0 48 -2 60 -6 18 -6 27 -3 38 13 17 23 36 28 33 9 -1
-7 -1 -21 0 -31 1 -17 3 -17 30 2 31 22 55 20 65 -6 4 -9 13 -13 22 -9 8 3 13
2 10 -3 -3 -5 1 -14 9 -21 21 -18 58 15 51 45 -4 14 2 27 14 38 22 19 35 22
25 8 -3 -6 3 -14 12 -20 16 -9 16 -12 3 -21 -26 -17 12 -12 49 6 18 9 88 23
155 30 66 8 131 16 144 19 34 8 27 -1 -24 -29 -30 -17 -62 -26 -90 -26 -55 0
-124 -21 -124 -37 0 -7 -4 -13 -10 -13 -5 0 -10 5 -10 11 0 8 -4 8 -15 -1 -8
-6 -18 -9 -23 -6 -13 8 -35 -21 -27 -34 4 -7 -2 -14 -13 -17 -11 -2 -22 -13
-25 -24 -7 -25 8 -24 136 2 126 25 326 97 387 139 49 33 53 34 36 7 -10 -14
-28 -28 -42 -31 -28 -7 -91 -63 -81 -72 9 -10 27 6 27 24 0 12 3 13 12 4 14
-14 -6 -42 -33 -42 -10 0 -20 -4 -23 -9 -8 -13 36 -22 50 -10 7 6 18 9 26 8
21 -3 48 12 48 27 0 17 27 19 33 2 4 -10 6 -10 6 0 1 6 6 12 12 12 6 0 22 9
36 20 14 11 37 20 50 20 17 0 47 22 96 70 39 39 77 70 84 70 7 0 13 6 13 14 0
9 -7 12 -18 9 -10 -2 -26 5 -36 16 -13 14 -26 19 -42 15 -17 -4 -24 -2 -24 9
0 14 27 28 60 31 42 4 60 18 60 47 0 25 2 28 13 17 7 -7 16 -21 19 -30 8 -19
48 -13 48 8 0 7 8 19 19 26 10 7 20 17 22 23 2 5 13 8 24 7 11 -1 25 1 30 5
15 12 35 51 35 68 0 8 4 15 9 15 12 0 34 57 27 68 -3 6 1 13 10 16 10 4 14 14
11 26 -4 15 2 24 24 35 25 14 34 31 30 58 0 4 8 7 19 7 17 0 18 3 8 19 -9 15
-8 22 5 35 9 10 25 16 34 14 12 -2 19 4 21 20 4 24 -7 29 -26 10 -18 -18 -35
3 -24 32 6 16 11 20 16 11 6 -9 12 -8 23 6 8 10 12 12 8 6 -3 -8 0 -13 8 -13
8 0 17 6 20 14 7 17 -11 36 -28 30 -7 -3 -16 -1 -20 5 -3 6 0 9 7 6 18 -6 68
40 68 64 0 33 11 51 34 52 21 0 21 0 -2 11 -16 8 -29 8 -45 0 -12 -6 -36 -12
-53 -14 -35 -5 -39 9 -11 40 21 23 22 32 2 32 -8 0 -15 4 -15 9 0 5 10 7 23 5
12 -2 8 1 -10 7 -17 6 -34 20 -36 30 -3 11 -14 19 -24 19 -14 0 -19 7 -19 22
1 16 -7 23 -31 30 -25 6 -32 14 -35 36 -2 21 -9 28 -30 30 -16 2 -28 -1 -28
-6 0 -5 -9 -12 -20 -15 -11 -3 -20 -11 -20 -19 0 -10 3 -9 10 2 5 8 10 10 10
4 0 -6 -11 -20 -25 -32 l-25 -22 0 33 c0 44 -10 78 -21 71 -5 -3 -9 -14 -9
-25 0 -11 -6 -22 -14 -25 -18 -7 -66 24 -66 42 0 8 -4 14 -10 14 -5 0 -10 -7
-10 -16 0 -8 -4 -13 -8 -10 -20 12 -73 15 -98 6 -21 -8 -30 -8 -36 2 -7 10
-11 10 -14 1 -3 -7 -12 -9 -20 -6 -8 3 -14 0 -14 -6 0 -12 -59 -4 -74 10 -6 5
-25 9 -44 9 -18 0 -40 7 -49 15 -14 15 -38 11 -28 -5 3 -4 -14 -4 -37 2 -23 5
-56 8 -73 7 -16 -1 -39 -1 -50 0 l-20 2 20 9 c19 8 19 9 -2 9 -12 1 -25 -3
-28 -9 -8 -13 -45 -13 -45 0 0 6 -10 8 -22 6 -13 -3 -63 -7 -111 -10 -49 -3
-92 -8 -98 -11 -5 -4 -9 1 -9 10 0 10 -8 15 -22 14 -42 -4 -59 1 -52 13 5 8 0
9 -17 5 -13 -4 -27 -7 -31 -7 -5 0 -8 -6 -8 -14 0 -14 -29 -31 -37 -22 -7 6
17 48 38 69 35 33 18 47 -28 25z m-23 -83 c0 -2 -9 -9 -20 -15 -16 -9 -20 -8
-20 5 0 8 9 15 20 15 11 0 20 -2 20 -5z m205 -399 c20 -13 95 -28 165 -31 73
-4 210 -50 210 -71 0 -8 7 -14 15 -14 8 0 15 -4 15 -9 0 -5 -7 -14 -15 -21 -8
-7 -15 -19 -15 -27 0 -10 -6 -12 -20 -8 -14 4 -20 2 -20 -9 0 -8 -9 -18 -20
-21 -11 -4 -18 -10 -15 -15 9 -14 -24 -32 -49 -26 -14 3 -27 2 -30 -2 -5 -9
-57 -21 -176 -42 -128 -23 -177 -35 -191 -46 -8 -7 -30 -15 -49 -19 -19 -4
-46 -12 -60 -18 -14 -6 -29 -11 -33 -11 -4 -1 -12 -7 -16 -15 -5 -8 -16 -11
-26 -8 -9 4 -13 11 -10 17 8 13 -4 50 -16 50 -6 0 -8 -4 -5 -8 6 -10 -63 -34
-75 -26 -12 7 20 77 44 96 12 10 37 18 55 18 17 0 32 5 32 10 0 6 -7 10 -15
10 -22 0 -18 18 6 25 12 4 18 12 15 21 -3 8 0 14 7 14 7 0 25 11 42 24 29 23
29 23 7 30 -38 12 -14 25 38 22 46 -4 68 6 38 17 -7 2 -5 3 4 2 10 -2 21 1 24
6 3 5 10 7 15 3 6 -3 18 -3 27 1 16 6 16 7 -2 20 -29 22 -11 36 27 21 20 -9
40 -11 55 -5 31 12 28 28 -7 27 -31 -1 -51 8 -51 23 0 14 53 11 75 -5z m-181
-61 c-25 -19 -34 -19 -34 0 0 10 10 15 27 15 26 0 26 -1 7 -15z m-171 -82
c-13 -2 -33 -2 -45 0 -13 2 -3 4 22 4 25 0 35 -2 23 -4z m65 -9 c-9 -10 -21
-13 -29 -8 -9 5 -8 9 7 15 31 12 39 10 22 -7z m-438 -28 c0 -3 -4 -8 -10 -11
-5 -3 -10 -1 -10 4 0 6 5 11 10 11 6 0 10 -2 10 -4z m405 -16 c4 -6 -5 -10
-19 -10 -14 0 -26 5 -26 10 0 6 9 10 19 10 11 0 23 -4 26 -10z m-310 -48 c-3
-3 -11 0 -18 7 -9 10 -8 11 6 5 10 -3 15 -9 12 -12z m180 -32 c3 -5 2 -10 -4
-10 -5 0 -13 5 -16 10 -3 6 -2 10 4 10 5 0 13 -4 16 -10z m-35 -24 c0 -23 -3
-24 -37 -19 -62 10 -94 23 -40 17 29 -4 47 -2 47 4 0 6 -6 13 -12 15 -7 3 -1
6 15 6 22 1 27 -3 27 -23z m-150 -1 c0 -8 -7 -15 -15 -15 -9 0 -12 6 -9 15 4
8 10 15 15 15 5 0 9 -7 9 -15z m180 -74 c0 -11 -4 -23 -10 -26 -6 -3 -7 1 -4
9 3 9 1 16 -6 16 -6 0 -8 5 -5 10 10 17 25 11 25 -9z m626 -259 c39 -39 122
-54 207 -37 31 6 37 5 37 -9 0 -9 -8 -16 -19 -16 -10 0 -24 -7 -31 -15 -7 -8
-16 -12 -22 -9 -5 3 -25 -2 -45 -11 -27 -13 -50 -16 -89 -11 -31 4 -55 2 -59
-4 -10 -16 -35 -11 -36 8 0 13 -2 12 -9 -5 -14 -34 -40 -29 -40 7 0 21 5 30
18 31 9 1 28 2 42 3 14 1 39 3 55 5 l30 3 -30 10 c-16 5 -46 13 -65 17 -29 5
-36 11 -38 34 -2 19 1 27 12 27 9 0 16 5 16 10 0 15 30 -3 66 -38z m294 -47
c0 -8 -4 -15 -9 -15 -13 0 -22 16 -14 24 11 11 23 6 23 -9z m-542 -150 c-1
-14 -6 -25 -10 -25 -4 0 -8 11 -8 25 0 14 4 25 10 25 5 0 9 -11 8 -25z m592
-5 c0 -5 -4 -10 -10 -10 -5 0 -10 5 -10 10 0 6 5 10 10 10 6 0 10 -4 10 -10z"/>
<path d="M5390 8191 c0 -12 6 -21 16 -21 9 0 14 7 12 17 -5 25 -28 28 -28 4z"/>
<path d="M5950 8970 c-24 -15 -7 -17 35 -4 38 12 38 12 10 13 -16 0 -37 -3
-45 -9z"/>
<path d="M7661 8956 c-8 -10 -9 -16 -1 -21 5 -3 10 -5 11 -3 4 18 7 38 4 38
-1 0 -8 -6 -14 -14z"/>
<path d="M7510 8914 c0 -8 5 -12 10 -9 6 4 8 11 5 16 -9 14 -15 11 -15 -7z"/>
<path d="M5195 8840 c-3 -5 1 -10 10 -10 9 0 13 5 10 10 -3 6 -8 10 -10 10 -2
0 -7 -4 -10 -10z"/>
<path d="M5200 8800 c0 -5 5 -10 11 -10 5 0 7 5 4 10 -3 6 -8 10 -11 10 -2 0
-4 -4 -4 -10z"/>
<path d="M5226 8774 c-9 -8 -16 -23 -16 -31 0 -13 5 -12 25 7 13 12 22 27 19
31 -7 12 -10 11 -28 -7z"/>
<path d="M5270 8750 c0 -5 4 -10 9 -10 6 0 13 5 16 10 3 6 -1 10 -9 10 -9 0
-16 -4 -16 -10z"/>
<path d="M7156 8565 c-3 -8 -1 -15 4 -15 13 0 22 18 11 24 -5 3 -11 -1 -15 -9z"/>
<path d="M5120 8129 c0 -5 5 -7 10 -4 6 3 10 8 10 11 0 2 -4 4 -10 4 -5 0 -10
-5 -10 -11z"/>
<path d="M5265 8010 c-16 -7 -17 -9 -3 -9 9 -1 20 4 23 9 7 11 7 11 -20 0z"/>
<path d="M6666 7911 c-4 -7 -5 -15 -2 -18 9 -9 19 4 14 18 -4 11 -6 11 -12 0z"/>
<path d="M4875 7750 c4 -6 11 -8 16 -5 14 9 11 15 -7 15 -8 0 -12 -5 -9 -10z"/>
<path d="M5634 7684 c3 -9 6 -18 6 -20 0 -3 4 -3 10 1 11 7 2 35 -12 35 -6 0
-7 -7 -4 -16z"/>
<path d="M5780 7690 c0 -5 5 -10 10 -10 6 0 10 5 10 10 0 6 -4 10 -10 10 -5 0
-10 -4 -10 -10z"/>
<path d="M5780 7640 c0 -5 5 -10 11 -10 5 0 7 5 4 10 -3 6 -8 10 -11 10 -2 0
-4 -4 -4 -10z"/>
<path d="M6555 6908 c-10 -40 -6 -130 5 -142 4 -4 8 33 8 83 0 50 -2 91 -3 91
-1 0 -6 -15 -10 -32z"/>
<path d="M7540 6200 c0 -6 7 -10 15 -10 8 0 15 2 15 4 0 2 -7 6 -15 10 -8 3
-15 1 -15 -4z"/>
<path d="M5030 6145 c0 -8 5 -15 10 -15 6 0 10 7 10 15 0 8 -4 15 -10 15 -5 0
-10 -7 -10 -15z"/>
<path d="M7610 6060 c0 -5 5 -10 11 -10 5 0 7 5 4 10 -3 6 -8 10 -11 10 -2 0
-4 -4 -4 -10z"/>
<path d="M6140 5890 c-8 -5 -12 -11 -9 -14 2 -3 11 -1 19 4 8 5 12 11 9 14 -2
3 -11 1 -19 -4z"/>
<path d="M6076 5771 c-4 -5 -2 -12 3 -15 5 -4 12 -2 15 3 4 5 2 12 -3 15 -5 4
-12 2 -15 -3z"/>
<path d="M6050 5600 c0 -5 4 -10 9 -10 6 0 13 5 16 10 3 6 -1 10 -9 10 -9 0
-16 -4 -16 -10z"/>
<path d="M7270 5579 c0 -5 5 -7 10 -4 6 3 10 8 10 11 0 2 -4 4 -10 4 -5 0 -10
-5 -10 -11z"/>
<path d="M6066 5544 c-9 -24 -7 -34 8 -34 13 0 26 20 26 41 0 15 -27 10 -34
-7z"/>
<path d="M6870 5453 c0 -13 5 -23 10 -23 13 0 13 11 0 30 -8 12 -10 11 -10 -7z"/>
<path d="M7515 5459 c-4 -6 -3 -15 3 -21 6 -6 11 -4 15 6 7 18 -9 31 -18 15z"/>
<path d="M6638 5443 c7 -3 16 -2 19 1 4 3 -2 6 -13 5 -11 0 -14 -3 -6 -6z"/>
<path d="M7471 5394 c0 -11 3 -14 6 -6 3 7 2 16 -1 19 -3 4 -6 -2 -5 -13z"/>
<path d="M6980 5340 c0 -5 5 -10 10 -10 6 0 10 5 10 10 0 6 -4 10 -10 10 -5 0
-10 -4 -10 -10z"/>
<path d="M6152 5320 c1 -14 -1 -31 -6 -38 -5 -8 -3 -19 3 -25 9 -9 14 -8 21 3
6 9 6 16 0 18 -5 2 -7 9 -4 17 3 8 1 22 -5 32 -10 16 -11 15 -9 -7z"/>
<path d="M6878 5263 c7 -3 16 -2 19 1 4 3 -2 6 -13 5 -11 0 -14 -3 -6 -6z"/>
<path d="M6015 4850 c-3 -5 -1 -10 4 -10 6 0 11 5 11 10 0 6 -2 10 -4 10 -3 0
-8 -4 -11 -10z"/>
<path d="M6350 4624 c0 -14 3 -14 15 -4 8 7 15 14 15 16 0 2 -7 4 -15 4 -8 0
-15 -7 -15 -16z"/>
<path d="M6290 4604 c0 -14 3 -14 15 -4 8 7 15 14 15 16 0 2 -7 4 -15 4 -8 0
-15 -7 -15 -16z"/>
<path d="M6100 4600 c0 -5 5 -10 11 -10 5 0 7 5 4 10 -3 6 -8 10 -11 10 -2 0
-4 -4 -4 -10z"/>
<path d="M7570 4570 c-19 -15 -21 -20 -9 -20 16 0 46 27 38 35 -2 2 -15 -5
-29 -15z"/>
<path d="M7507 4513 c-2 -10 -8 -26 -12 -35 -4 -10 -3 -18 2 -18 8 0 17 13 41
63 2 4 -3 7 -11 7 -8 0 -17 -8 -20 -17z"/>
<path d="M6375 4490 c3 -5 8 -10 11 -10 2 0 4 5 4 10 0 6 -5 10 -11 10 -5 0
-7 -4 -4 -10z"/>
<path d="M6583 4390 c-1 -11 2 -20 8 -20 5 0 9 9 9 20 0 11 -4 20 -8 20 -4 0
-8 -9 -9 -20z"/>
<path d="M7230 4380 c0 -5 5 -10 11 -10 5 0 7 5 4 10 -3 6 -8 10 -11 10 -2 0
-4 -4 -4 -10z"/>
<path d="M8017 7813 c-12 -11 -8 -23 8 -23 8 0 15 7 15 15 0 16 -12 20 -23 8z"/>
<path d="M7945 7800 c3 -5 17 -10 31 -10 14 0 22 4 19 10 -3 6 -17 10 -31 10
-14 0 -22 -4 -19 -10z"/>
<path d="M8153 7688 c7 -10 13 -14 15 -8 2 5 10 10 18 10 8 0 14 4 14 9 0 5
-13 9 -29 9 -26 -1 -28 -3 -18 -20z"/>
<path d="M8334 7559 c-3 -5 6 -9 20 -9 31 0 34 6 6 13 -11 3 -23 1 -26 -4z"/>
<path d="M8925 7080 c3 -5 10 -10 16 -10 5 0 9 5 9 10 0 6 -7 10 -16 10 -8 0
-12 -4 -9 -10z"/>
<path d="M8910 7050 c0 -5 5 -10 11 -10 5 0 7 5 4 10 -3 6 -8 10 -11 10 -2 0
-4 -4 -4 -10z"/>
<path d="M8957 7010 c-4 -15 0 -20 15 -20 18 0 19 2 7 18 -7 9 -14 18 -15 20
-1 1 -4 -6 -7 -18z"/>
<path d="M8914 6984 c1 -29 12 -32 19 -5 3 11 -1 22 -8 25 -8 3 -12 -4 -11
-20z"/>
<path d="M8940 6880 c0 -5 5 -10 10 -10 6 0 10 5 10 10 0 6 -4 10 -10 10 -5 0
-10 -4 -10 -10z"/>
<path d="M8875 6859 c-10 -15 3 -25 16 -12 7 7 7 13 1 17 -6 3 -14 1 -17 -5z"/>
<path d="M8920 6829 c0 -5 5 -7 10 -4 6 3 10 8 10 11 0 2 -4 4 -10 4 -5 0 -10
-5 -10 -11z"/>
<path d="M8946 6793 c-11 -11 -6 -23 8 -23 8 0 17 4 20 9 7 10 -19 23 -28 14z"/>
<path d="M8870 6570 c0 -5 5 -10 10 -10 6 0 10 5 10 10 0 6 -4 10 -10 10 -5 0
-10 -4 -10 -10z"/>
<path d="M8618 6073 c6 -2 18 -2 25 0 6 3 1 5 -13 5 -14 0 -19 -2 -12 -5z"/>
<path d="M4655 11230 c3 -5 8 -10 11 -10 2 0 4 5 4 10 0 6 -5 10 -11 10 -5 0
-7 -4 -4 -10z"/>
<path d="M9862 11134 c1 -9 9 -19 16 -22 9 -3 13 2 10 14 -1 9 -9 19 -16 22
-9 3 -13 -2 -10 -14z"/>
<path d="M9920 11089 c0 -11 5 -17 10 -14 6 3 10 13 10 21 0 8 -4 14 -10 14
-5 0 -10 -9 -10 -21z"/>
<path d="M10160 10573 c0 -5 5 -15 10 -23 8 -12 10 -11 10 8 0 12 -4 22 -10
22 -5 0 -10 -3 -10 -7z"/>
<path d="M10400 10234 c0 -8 5 -12 10 -9 6 4 8 11 5 16 -9 14 -15 11 -15 -7z"/>
<path d="M10507 10237 c-11 -29 -9 -53 4 -40 6 6 9 21 7 34 -3 21 -4 22 -11 6z"/>
<path d="M10535 9901 c-3 -5 -1 -12 5 -16 5 -3 10 1 10 9 0 18 -6 21 -15 7z"/>
<path d="M4021 8364 c0 -11 3 -14 6 -6 3 7 2 16 -1 19 -3 4 -6 -2 -5 -13z"/>
<path d="M4351 7204 c0 -11 3 -14 6 -6 3 7 2 16 -1 19 -3 4 -6 -2 -5 -13z"/>
<path d="M9840 5551 c0 -5 14 -9 30 -9 17 1 30 5 30 10 0 4 -13 8 -30 8 -16 0
-30 -4 -30 -9z"/>
<path d="M9835 5395 c-1 -63 3 -85 12 -85 9 0 13 19 13 66 0 65 1 66 24 60 18
-4 25 -1 29 14 4 16 0 20 -23 20 -16 0 -34 2 -42 5 -10 4 -13 -13 -13 -80z"/>
<path d="M9839 5148 c4 -77 5 -80 12 -37 9 58 6 112 -6 116 -6 2 -8 -29 -6
-79z"/>
<path d="M5431 4394 c0 -11 3 -14 6 -6 3 7 2 16 -1 19 -3 4 -6 -2 -5 -13z"/>
<path d="M5550 4050 c0 -5 5 -10 10 -10 6 0 10 -7 10 -16 0 -8 5 -12 10 -9 19
12 11 45 -10 45 -11 0 -20 -4 -20 -10z"/>
<path d="M6170 3310 c0 -5 7 -10 15 -10 8 0 15 5 15 10 0 6 -7 10 -15 10 -8 0
-15 -4 -15 -10z"/>
<path d="M6510 3071 c0 -5 5 -13 10 -16 6 -3 10 -2 10 4 0 5 -4 13 -10 16 -5
3 -10 2 -10 -4z"/>
<path d="M6685 2894 c23 -17 35 -18 35 -1 0 6 -12 13 -27 14 -26 1 -27 0 -8
-13z"/>
<path d="M6787 2824 c-13 -13 -7 -24 14 -24 11 0 19 5 17 12 -5 14 -22 21 -31
12z"/>
<path d="M7000 2620 c0 -5 9 -10 20 -10 11 0 20 5 20 10 0 6 -9 10 -20 10 -11
0 -20 -4 -20 -10z"/>
<path d="M7120 2395 c0 -8 7 -15 15 -15 9 0 12 6 9 15 -4 8 -10 15 -15 15 -5
0 -9 -7 -9 -15z"/>
<path d="M7320 2250 c0 -5 5 -10 10 -10 6 0 10 5 10 10 0 6 -4 10 -10 10 -5 0
-10 -4 -10 -10z"/>
<path d="M7610 2136 c0 -9 7 -16 16 -16 17 0 14 22 -4 28 -7 2 -12 -3 -12 -12z"/>
</g>
</svg>
